# Blender 3.6.0
# www.blender.org
mtllib Floor.mtl
o Cube.001
v 4.973054 -0.023852 4.526396
v 4.973054 0.000000 4.526396
v 4.973054 -0.023852 -10.470418
v 4.973054 0.000000 -10.470418
v 15.724908 -0.023852 4.526396
v 15.724908 0.000000 4.526396
v 15.724908 -0.023852 -10.470418
v 15.724908 0.000000 -10.470418
v 4.973054 -0.023852 4.526396
v 4.973054 0.000000 4.526396
v 10.190321 -0.023852 4.526396
v 10.190321 0.000000 4.526396
v -0.244904 -0.023852 0.305395
v -0.244904 0.000000 0.305395
v -0.244904 -0.023852 -10.468740
v -0.244904 0.000000 -10.468740
v 4.972363 -0.023852 0.305395
v 4.972363 0.000000 0.305395
v 4.972363 -0.023852 -10.468740
v 4.972363 0.000000 -10.468740
vn -1.0000 -0.0000 -0.0000
vn -0.0000 -0.0000 -1.0000
vn 1.0000 -0.0000 -0.0000
vn -0.0000 -1.0000 -0.0000
vn -0.0000 1.0000 -0.0000
vn -0.0000 -0.0000 1.0000
vt 0.375000 0.000000
vt 0.625000 0.000000
vt 0.625000 0.250000
vt 0.375000 0.250000
vt 0.414622 0.499253
vt 0.414622 0.500747
vt 1.087883 0.500747
vt 1.087883 0.499253
vt 0.375000 0.500000
vt 0.625000 0.500000
vt 0.625000 0.750000
vt 0.375000 0.750000
vt 0.414622 0.861319
vt 1.087883 0.861319
vt 1.087883 -0.077754
vt 0.414622 -0.077754
vt 0.741318 0.499253
vt 0.741318 0.500747
vt 0.087883 0.499253
vt 0.087883 0.500747
vt 0.414579 0.500747
vt 0.414579 0.499253
vt 0.861214 0.499253
vt 0.861214 0.500747
vt 0.186557 0.500747
vt 0.186557 0.499253
vt 0.625000 1.000000
vt 0.375000 1.000000
vt 0.087883 0.861214
vt 0.414579 0.861214
vt 0.414579 0.186557
vt 0.087883 0.186557
s 0
usemtl Material.001
f 1/1/1 2/2/1 4/3/1 3/4/1
f 3/5/2 4/6/2 8/7/2 7/8/2
f 7/9/3 8/10/3 6/11/3 5/12/3
f 3/13/4 7/14/4 5/15/4 1/16/4
f 8/14/5 4/13/5 2/16/5 6/15/5
f 11/17/6 12/18/6 10/6/6 9/5/6
f 13/1/1 14/2/1 16/3/1 15/4/1
f 15/19/2 16/20/2 20/21/2 19/22/2
f 19/23/3 20/24/3 18/25/3 17/26/3
f 17/12/6 18/11/6 14/27/6 13/28/6
f 15/29/4 19/30/4 17/31/4 13/32/4
f 20/30/5 16/29/5 14/32/5 18/31/5
