# Blender 3.6.0
# www.blender.org
mtllib RoomV5.mtl
o Cube.006
v 15.727644 0.000000 4.517928
v 15.727644 4.000000 4.517928
v 15.477644 0.000000 4.517928
v 15.477644 4.000000 4.517928
v 15.727644 0.000000 -10.241700
v 15.727644 4.000000 -10.241700
v 15.477644 0.000000 -10.241700
v 15.477644 4.000000 -10.241700
v 5.214644 0.000000 4.519652
v 5.214644 4.000000 4.519652
v 5.214644 0.000000 4.269652
v 5.214644 4.000000 4.269652
v 15.512920 0.000000 4.519652
v 15.512920 4.000000 4.519652
v 15.512920 0.000000 4.269652
v 15.512920 4.000000 4.269652
v 5.216331 0.004519 4.520618
v 5.216197 4.000000 4.518573
v 4.966331 0.004519 4.520618
v 4.966197 4.000000 4.518573
v 5.216331 0.004519 0.058392
v 5.216196 4.000000 0.056346
v 4.966331 0.004519 0.058392
v 4.966196 4.000000 0.056346
v -0.003877 0.000000 0.309122
v -0.003877 4.000000 0.309122
v -0.003877 0.000000 0.059122
v -0.003877 4.000000 0.059122
v 4.973019 0.000000 0.309122
v 4.973019 4.000000 0.309122
v 4.973019 0.000000 0.059122
v 4.973019 4.000000 0.059122
v -0.001522 0.000000 0.308644
v -0.001522 4.000000 0.308644
v -0.251522 0.000000 0.308644
v -0.251522 4.000000 0.308644
v -0.001523 0.000000 -10.243113
v -0.001523 4.000000 -10.243113
v -0.251523 0.000000 -10.243113
v -0.251523 4.000000 -10.243113
v -0.252212 0.000000 -10.242104
v -0.252212 4.000000 -10.242104
v -0.252212 0.000000 -10.492104
v -0.252212 4.000000 -10.492104
v 9.165895 0.000000 -10.242104
v 9.165895 4.000000 -10.242104
v 9.165895 0.000000 -10.492105
v 9.165895 4.000000 -10.492105
v 12.214189 0.000000 -10.242103
v 12.214189 4.000000 -10.242103
v 12.214189 0.000000 -10.492103
v 12.214189 4.000000 -10.492103
v 15.726511 0.000000 -10.242103
v 15.726511 4.000000 -10.242103
v 15.726512 0.000000 -10.492103
v 15.726512 4.000000 -10.492103
v 9.166478 3.000000 -10.242105
v 9.166478 3.999208 -10.242105
v 9.166478 3.000000 -10.492105
v 9.166478 3.999208 -10.492105
v 12.214552 3.000000 -10.242105
v 12.214552 3.999208 -10.242105
v 12.214552 3.000000 -10.492105
v 12.214552 3.999208 -10.492105
vn -0.0000 -0.0000 1.0000
vn -1.0000 -0.0000 -0.0000
vn -0.0000 -0.0000 -1.0000
vn 1.0000 -0.0000 -0.0000
vn -0.0000 -1.0000 -0.0000
vn -0.0000 1.0000 -0.0000
vn -0.0000 0.0005 1.0000
vn -0.0000 -0.0005 -1.0000
vt 0.872714 0.826915
vt 0.872709 0.628006
vt 1.009341 0.627821
vt 1.009347 0.826730
vt 0.121094 0.283203
vt 0.121094 0.158203
vt 0.621094 0.158203
vt 0.621094 0.283203
vt 0.057066 0.432720
vt 0.057066 0.557877
vt 0.041422 0.557877
vt 0.041422 0.432720
vt 0.984307 0.673876
vt 0.984307 0.799034
vt 0.060667 0.799034
vt 0.060667 0.673876
vt -0.091902 0.278533
vt 0.831738 0.278533
vt 0.831738 0.270711
vt -0.091902 0.270711
vt 0.375000 0.000000
vt 0.625000 0.000000
vt 0.625000 0.250000
vt 0.375000 0.250000
vt 1.265592 0.161907
vt 1.265592 0.287065
vt 0.621139 0.287065
vt 0.621139 0.161907
vt 0.375000 0.500000
vt 0.625000 0.500000
vt 0.625000 0.750000
vt 0.375000 0.750000
vt 0.067902 0.830456
vt 0.067902 0.628636
vt 0.875181 0.628636
vt 0.875181 0.830456
vt -0.076365 0.599656
vt -0.076365 0.277429
vt -0.092010 0.277429
vt -0.092010 0.599656
vt -0.009122 0.812169
vt -0.009122 0.565132
vt 0.091117 0.565132
vt 0.091117 0.812169
vt 0.406990 0.585897
vt 0.656990 0.585897
vt 0.656990 0.835897
vt 0.406990 0.835897
vt 0.324738 0.209635
vt 0.394922 0.209567
vt 0.394922 0.336026
vt 0.324738 0.336094
vt 1.545142 0.163127
vt 1.545270 0.288143
vt 1.266030 0.288143
vt 1.265902 0.163127
vt -0.092070 0.607426
vt 0.187171 0.607426
vt 0.187171 0.599603
vt -0.092070 0.599603
vt 0.187299 0.607430
vt -0.091942 0.607430
vt -0.091942 0.599608
vt 0.187299 0.599608
vt 0.708091 0.211817
vt 0.708091 0.336974
vt 0.396643 0.336974
vt 0.396643 0.211817
vt 0.052734 0.958008
vt 0.052734 0.782083
vt 0.619024 0.782083
vt 0.619024 0.958008
vt 0.187125 0.762941
vt 0.187125 0.607217
vt 0.171480 0.607217
vt 0.171480 0.762941
vt 0.001736 0.956659
vt 0.001736 0.782700
vt 0.047190 0.782700
vt 0.047190 0.956659
vt 0.093889 0.778662
vt 0.093889 0.653662
vt 0.593889 0.653662
vt 0.593889 0.778662
vt 1.368936 0.211040
vt 1.368936 0.336198
vt 0.708619 0.336198
vt 0.708619 0.211040
vt 0.171510 0.770689
vt 0.831826 0.770689
vt 0.831826 0.762867
vt 0.171510 0.762867
vt -0.004232 0.786391
vt -0.004232 0.642273
vt 0.090705 0.642273
vt 0.090705 0.786391
vt 2.386449 0.530760
vt 2.386449 0.871054
vt 0.783983 0.871054
vt 0.783983 0.530760
vt 0.783850 0.595490
vt 0.783850 0.774287
vt 0.711493 0.774287
vt 0.711493 0.595490
vt 1.369920 0.211249
vt 1.369920 0.336407
vt 1.959294 0.336407
vt 1.959294 0.211249
vt 0.847408 0.770711
vt 0.847408 0.476024
vt 0.831763 0.476024
vt 0.831763 0.770711
vt 0.401162 0.977741
vt 0.401162 0.603516
vt 0.256300 0.603516
vt 0.256300 0.977741
vt -0.814333 0.864087
vt -0.814333 0.538080
vt 0.208847 0.538080
vt 0.208847 0.864087
vt 0.999976 0.672646
vt 0.999976 0.797804
vt 0.984332 0.797804
vt 0.984332 0.672646
vt 2.203602 0.212017
vt 2.203602 0.337174
vt 2.423398 0.337174
vt 2.423398 0.212017
vt 0.847408 0.380645
vt 0.847408 0.270746
vt 0.831763 0.270746
vt 0.831763 0.380645
vt 0.784078 0.652213
vt 0.784078 0.754856
vt 0.210038 0.754856
vt 0.210038 0.652213
vt 1.962705 0.335839
vt 1.962705 0.275902
vt 2.202450 0.275902
vt 2.202450 0.335839
vt 0.616066 0.794571
vt 0.616066 0.644708
vt 0.591483 0.644708
vt 0.591483 0.794571
vt 0.847408 0.380633
vt 0.847408 0.476006
vt 0.831763 0.476006
vt 0.831763 0.380633
s 0
usemtl Material
f 1/1/1 2/2/1 4/3/1 3/4/1
f 3/5/2 4/6/2 8/7/2 7/8/2
f 7/9/3 8/10/3 6/11/3 5/12/3
f 5/13/4 6/14/4 2/15/4 1/16/4
f 3/17/5 7/18/5 5/19/5 1/20/5
f 8/18/6 4/17/6 2/20/6 6/19/6
f 9/21/2 10/22/2 12/23/2 11/24/2
f 11/25/3 12/26/3 16/27/3 15/28/3
f 15/29/4 16/30/4 14/31/4 13/32/4
f 13/33/1 14/34/1 10/35/1 9/36/1
f 11/37/5 15/38/5 13/39/5 9/40/5
f 16/38/6 12/37/6 10/40/6 14/39/6
f 17/41/7 18/42/7 20/43/7 19/44/7
f 19/45/2 20/46/2 24/47/2 23/48/2
f 23/49/8 24/50/8 22/51/8 21/52/8
f 21/53/4 22/54/4 18/55/4 17/56/4
f 19/57/5 23/58/5 21/59/5 17/60/5
f 24/61/6 20/62/6 18/63/6 22/64/6
f 25/21/2 26/22/2 28/23/2 27/24/2
f 27/65/3 28/66/3 32/67/3 31/68/3
f 31/29/4 32/30/4 30/31/4 29/32/4
f 29/69/1 30/70/1 26/71/1 25/72/1
f 27/73/5 31/74/5 29/75/5 25/76/5
f 32/74/6 28/73/6 26/76/6 30/75/6
f 33/77/1 34/78/1 36/79/1 35/80/1
f 35/81/2 36/82/2 40/83/2 39/84/2
f 39/29/3 40/30/3 38/31/3 37/32/3
f 37/85/4 38/86/4 34/87/4 33/88/4
f 35/89/5 39/90/5 37/91/5 33/92/5
f 40/90/6 36/89/6 34/92/6 38/91/6
f 41/93/2 42/94/2 44/95/2 43/96/2
f 43/97/3 44/98/3 48/99/3 47/100/3
f 47/101/4 48/102/4 46/103/4 45/104/4
f 45/105/1 46/106/1 42/107/1 41/108/1
f 43/109/5 47/110/5 45/111/5 41/112/5
f 48/110/6 44/109/6 42/112/6 46/111/6
f 49/113/2 50/114/2 52/115/2 51/116/2
f 51/117/3 52/118/3 56/119/3 55/120/3
f 55/121/4 56/122/4 54/123/4 53/124/4
f 53/125/1 54/126/1 50/127/1 49/128/1
f 51/129/5 55/130/5 53/131/5 49/132/5
f 56/130/6 52/129/6 50/132/6 54/131/6
f 57/21/2 58/22/2 60/23/2 59/24/2
f 59/133/3 60/134/3 64/135/3 63/136/3
f 63/29/4 64/30/4 62/31/4 61/32/4
f 61/137/1 62/138/1 58/139/1 57/140/1
f 59/141/5 63/142/5 61/143/5 57/144/5
f 64/145/6 60/146/6 58/147/6 62/148/6
