# Blender 3.6.0
# www.blender.org
mtllib CeilingV3.mtl
o Cube
v 4.965852 4.000483 4.516513
v 4.965852 4.144616 4.516513
v 4.965852 4.000483 -10.487397
v 4.965852 4.144616 -10.487397
v 15.726559 4.000483 4.516513
v 15.726559 4.144616 4.516513
v 15.726559 4.000483 -10.487397
v 15.726559 4.144616 -10.487397
v -0.251009 4.000500 0.309241
v -0.251009 4.144633 0.309241
v -0.251009 4.000500 -10.487335
v -0.251009 4.144633 -10.487335
v 4.965574 4.000500 0.309241
v 4.965574 4.144633 0.309241
v 4.965574 4.000500 -10.487335
v 4.965574 4.144633 -10.487335
vn -1.0000 -0.0000 -0.0000
vn -0.0000 -0.0000 -1.0000
vn 1.0000 -0.0000 -0.0000
vn -0.0000 -0.0000 1.0000
vn -0.0000 -1.0000 -0.0000
vn -0.0000 1.0000 -0.0000
vt 0.036277 0.615052
vt 0.036277 0.619563
vt 0.975338 0.619563
vt 0.975338 0.615052
vt 0.367821 0.643174
vt 0.367821 0.647684
vt 1.041309 0.647684
vt 1.041309 0.643174
vt 0.687198 0.647280
vt 0.687198 0.651790
vt -0.251863 0.651790
vt -0.251863 0.647280
vt -0.253057 0.647316
vt -0.253057 0.651826
vt -0.926545 0.651826
vt -0.926545 0.647316
vt 0.568290 0.471767
vt 1.241778 0.471767
vt 1.241778 0.002237
vt 0.568290 0.002237
vt 1.594519 0.542044
vt 1.594519 0.878788
vt 0.655459 0.878788
vt 0.655459 0.542044
vt 1.378424 0.644512
vt 1.378424 0.649023
vt 2.054157 0.649023
vt 2.054157 0.644512
vt 1.047833 0.645020
vt 1.047833 0.649530
vt 1.374327 0.649530
vt 1.374327 0.645020
vt 0.903697 0.497745
vt 0.903697 0.502255
vt 0.227963 0.502255
vt 0.227963 0.497745
vt 0.884058 0.681286
vt 0.884058 0.685797
vt 0.557564 0.685797
vt 0.557564 0.681286
vt 0.239232 0.471844
vt 0.565726 0.471844
vt 0.565726 0.133977
vt 0.239232 0.133977
vt 0.646206 0.712863
vt 0.646206 0.876110
vt -0.029527 0.876110
vt -0.029527 0.712863
s 0
usemtl Material.001
f 1/1/1 2/2/1 4/3/1 3/4/1
f 3/5/2 4/6/2 8/7/2 7/8/2
f 7/9/3 8/10/3 6/11/3 5/12/3
f 5/13/4 6/14/4 2/15/4 1/16/4
f 3/17/5 7/18/5 5/19/5 1/20/5
f 8/21/6 4/22/6 2/23/6 6/24/6
f 9/25/1 10/26/1 12/27/1 11/28/1
f 11/29/2 12/30/2 16/31/2 15/32/2
f 15/33/3 16/34/3 14/35/3 13/36/3
f 13/37/4 14/38/4 10/39/4 9/40/4
f 11/41/5 15/42/5 13/43/5 9/44/5
f 16/45/6 12/46/6 10/47/6 14/48/6
