# Blender 3.5.1
# www.blender.org
mtllib Decoration.mtl
o Decoration
v 6.959983 1.231311 4.223539
v 6.959983 3.231311 4.223538
v 6.959983 1.231311 4.151621
v 6.959983 3.231311 4.151620
v 8.959984 1.231311 4.223539
v 8.959984 3.231311 4.223538
v 8.959984 1.231311 4.151621
v 8.959984 3.231311 4.151620
v 11.852369 1.231311 4.223539
v 11.852369 3.231311 4.223538
v 11.852369 1.231311 4.151621
v 11.852369 3.231311 4.151620
v 13.852371 1.231311 4.223539
v 13.852371 3.231311 4.223538
v 13.852371 1.231311 4.151621
v 13.852371 3.231311 4.151620
vn -1.0000 -0.0000 -0.0000
vn -0.0000 -0.0000 -1.0000
vn 1.0000 -0.0000 -0.0000
vn -0.0000 -0.0000 1.0000
vn -0.0000 -1.0000 -0.0000
vn -0.0000 1.0000 -0.0000
vt 0.105102 0.701236
vt 0.133815 0.954185
vt 0.105232 0.951640
vt 0.355102 0.701236
vt 0.383815 0.954185
vt 0.357783 0.950293
vt 0.105102 0.951235
vt 0.947182 0.007088
vt 0.105232 0.701640
vt 0.355102 0.951235
vt 0.948146 0.626152
vt 0.357783 0.700293
vt 0.113945 0.946921
vt 0.133815 0.704185
vt 0.355232 0.951640
vt 0.363945 0.946921
vt 0.383815 0.704185
vt 0.107783 0.950293
vt 0.041662 0.007746
vt 0.113945 0.696921
vt 0.355232 0.701640
vt 0.042627 0.626811
vt 0.363945 0.696921
vt 0.107783 0.700293
vt 0.105102 0.701236
vt 0.119416 0.956475
vt 0.105232 0.951640
vt 0.355102 0.701236
vt 0.369416 0.956475
vt 0.357783 0.950293
vt 0.105102 0.951235
vt 0.996624 0.650542
vt 0.105232 0.701640
vt 0.355102 0.951235
vt 0.997218 0.995507
vt 0.357783 0.700293
vt 0.113945 0.946921
vt 0.119416 0.706475
vt 0.355232 0.951640
vt 0.363945 0.946921
vt 0.369416 0.706475
vt 0.107783 0.950293
vt 0.438962 0.650909
vt 0.113945 0.696921
vt 0.355232 0.701640
vt 0.439557 0.995874
vt 0.363945 0.696921
vt 0.107783 0.700293
s 0
usemtl Material.005
f 1/1/1 2/4/1 4/10/1 3/7/1
f 3/8/2 4/11/2 8/22/2 7/19/2
f 7/20/3 8/23/3 6/16/3 5/13/3
f 5/14/4 6/17/4 2/5/4 1/2/4
f 3/9/5 7/21/5 5/15/5 1/3/5
f 8/24/6 4/12/6 2/6/6 6/18/6
usemtl Material.004
f 9/25/1 10/28/1 12/34/1 11/31/1
f 11/32/2 12/35/2 16/46/2 15/43/2
f 15/44/3 16/47/3 14/40/3 13/37/3
f 13/38/4 14/41/4 10/29/4 9/26/4
f 11/33/5 15/45/5 13/39/5 9/27/5
f 16/48/6 12/36/6 10/30/6 14/42/6
