# Blender 3.6.0
# www.blender.org
mtllib RoomV4.mtl
o Plane
v 15.488507 0.000000 4.267467
v 0.000000 0.000000 -10.243082
v 15.488507 0.000000 -10.243082
v 0.000000 0.000000 0.066550
v 15.488507 0.000000 0.066550
v 5.212752 0.000000 4.267467
v 5.212752 0.000000 -10.243082
v 5.212752 0.000000 0.066550
v 5.212752 4.000000 4.267467
v 15.488507 4.000000 4.267467
v 15.488507 4.000000 0.066550
v 15.488507 4.000000 -10.243082
v 5.212752 4.000000 -10.243082
v 0.000000 4.000000 -10.243082
v 0.000000 4.000000 0.066550
v 5.212752 4.000000 0.066550
v 15.488507 0.000000 -5.088265
v 15.488507 0.000000 2.167008
v 15.488507 4.000000 -5.088265
v 15.488507 4.000000 2.167008
v 15.488507 2.000000 -10.243082
v 15.488507 2.000000 4.267467
v 10.350630 0.000000 -10.243082
v 0.000000 0.000000 -5.088266
v 0.000000 4.000000 -5.088266
v 0.000000 0.000000 -7.665674
v 0.000000 4.000000 -7.665674
v 0.000000 2.929135 0.066550
v 0.000000 2.929135 -10.243082
v 5.212752 2.929135 4.267467
v 5.212752 2.929135 0.066550
v 0.000000 2.929135 -5.088266
v 0.000000 2.929135 -7.665674
v 15.138507 0.000000 3.917467
v 0.350000 0.000000 -9.893082
v 15.138507 0.000000 -9.893082
v 0.350000 0.000000 -0.283450
v 15.138507 0.000000 0.066550
v 5.562752 0.000000 3.917467
v 5.212752 0.000000 -9.893082
v 5.562752 0.000000 -0.283450
v 5.562752 4.000000 3.917467
v 15.138507 4.000000 3.917467
v 15.138507 4.000000 0.066550
v 15.138507 4.000000 -9.893082
v 5.212752 4.000000 -9.893082
v 0.350000 4.000000 -9.893082
v 0.350000 4.000000 -0.283450
v 5.562752 4.000000 -0.283450
v 15.138507 0.000000 -5.088265
v 15.138507 0.000000 2.167008
v 15.138507 4.000000 -5.088265
v 15.138507 4.000000 2.167008
v 15.138507 2.000000 -9.893082
v 15.138507 2.000000 3.917467
v 10.350630 0.000000 -9.893082
v 0.350000 0.000000 -5.088266
v 0.350000 4.000000 -5.088266
v 0.350000 0.000000 -7.665674
v 0.350000 4.000000 -7.665674
v 0.350000 2.929135 -0.283450
v 0.350000 2.929135 -9.893082
v 5.562752 2.929135 3.917467
v 5.562752 2.929135 -0.283450
v 0.350000 2.929135 -5.088266
v 0.350000 2.929135 -7.665674
vn -0.0000 -0.0000 -1.0000
vn 1.0000 -0.0000 -0.0000
vn -0.0000 -0.0000 1.0000
vn -1.0000 -0.0000 -0.0000
vn -0.0000 -1.0000 -0.0000
vn -0.0000 1.0000 -0.0000
vt -0.932981 0.712747
vt -0.120305 0.712747
vt 0.692371 0.712747
vt 1.516890 0.712747
vt 1.516890 0.095687
vt 1.516890 -0.129904
vt 0.692371 -0.129904
vt -0.932981 -0.129904
vt -0.932981 0.291421
vt 0.124179 0.080507
vt 0.844701 0.080507
vt 1.565223 0.080507
vt 1.565223 0.500000
vt 1.565223 0.919493
vt 0.844701 0.919493
vt 0.124179 0.919493
vt -0.169415 0.919493
vt -0.463010 0.919493
vt -0.463010 0.500000
vt -0.463010 0.080507
vt -0.169415 0.080507
vt -0.090131 0.121753
vt 1.011599 0.121753
vt 1.011599 0.613899
vt 1.011599 1.106045
vt -0.090131 1.106045
vt -0.090131 0.842534
vt 0.874041 0.432319
vt 0.236989 0.432319
vt 0.236989 0.676003
vt 0.874041 0.676003
vt 0.173998 0.578589
vt 0.971524 0.578589
vt 0.971524 0.824440
vt 0.173998 0.824440
vt -0.218114 0.584608
vt -0.218114 0.821266
vt 0.427071 0.821266
vt 0.749663 0.821266
vt 1.072255 0.821266
vt 1.072255 0.584608
vt 1.072255 -0.062722
vt 0.749663 -0.062722
vt 0.749663 0.584608
vt 0.427071 0.584608
vt 0.427071 -0.062722
vt -0.218114 -0.062722
vt 0.173998 -0.093889
vt 0.971524 -0.093889
vt 0.874041 -0.234229
vt 0.236989 -0.234229
s 0
usemtl Material.001
f 3/1/1 23/2/1 7/3/1 2/4/1 29/5/1 14/6/1 13/7/1 12/8/1 21/9/1
f 5/10/2 17/11/2 3/12/2 21/13/2 12/14/2 19/15/2 11/16/2 20/17/2 10/18/2 22/19/2 1/20/2 18/21/2
f 6/22/3 1/23/3 22/24/3 10/25/3 9/26/3 30/27/3
f 31/28/4 30/29/4 9/30/4 16/31/4
f 28/32/3 31/33/3 16/34/3 15/35/3
f 28/36/4 15/37/4 25/38/4 27/39/4 14/40/4 29/41/4 2/42/4 26/43/4 33/44/4 32/45/4 24/46/4 4/47/4
f 4/48/3 8/49/3 31/33/3 28/32/3
f 8/50/4 6/51/4 30/29/4 31/28/4
f 36/1/3 54/9/3 45/8/3 46/7/3 47/6/3 62/5/3 35/4/3 40/3/3 56/2/3
f 38/10/4 51/21/4 34/20/4 55/19/4 43/18/4 53/17/4 44/16/4 52/15/4 45/14/4 54/13/4 36/12/4 50/11/4
f 39/22/1 63/27/1 42/26/1 43/25/1 55/24/1 34/23/1
f 64/28/2 49/31/2 42/30/2 63/29/2
f 61/32/1 48/35/1 49/34/1 64/33/1
f 61/36/2 37/47/2 57/46/2 65/45/2 66/44/2 59/43/2 35/42/2 62/41/2 47/40/2 60/39/2 58/38/2 48/37/2
f 37/48/1 61/32/1 64/33/1 41/49/1
f 41/50/2 64/28/2 63/29/2 39/51/2
f 1/23/5 6/22/5 39/22/5 34/23/5
f 3/12/5 17/11/5 50/11/5 36/12/5
f 2/4/5 7/3/5 40/3/5 35/4/5
f 4/47/5 24/46/5 57/46/5 37/47/5
f 5/10/5 18/21/5 51/21/5 38/10/5
f 8/49/5 4/48/5 37/48/5 41/49/5
f 7/3/5 23/2/5 56/2/5 40/3/5
f 6/51/5 8/50/5 41/50/5 39/51/5
f 9/26/6 10/25/6 43/25/6 42/26/6
f 19/15/6 12/14/6 45/14/6 52/15/6
f 13/7/6 14/6/6 47/6/6 46/7/6
f 25/38/6 15/37/6 48/37/6 58/38/6
f 20/17/6 11/16/6 44/16/6 53/17/6
f 15/35/6 16/34/6 49/34/6 48/35/6
f 12/8/6 13/7/6 46/7/6 45/8/6
f 16/31/6 9/30/6 42/30/6 49/31/6
f 17/11/5 5/10/5 38/10/5 50/11/5
f 18/21/5 1/20/5 34/20/5 51/21/5
f 11/16/6 19/15/6 52/15/6 44/16/6
f 10/18/6 20/17/6 53/17/6 43/18/6
f 23/2/5 3/1/5 36/1/5 56/2/5
f 27/39/6 25/38/6 58/38/6 60/39/6
f 26/43/5 2/42/5 35/42/5 59/43/5
f 14/40/6 27/39/6 60/39/6 47/40/6
f 24/46/1 32/45/1 65/45/1 57/46/1
f 33/44/3 26/43/3 59/43/3 66/44/3
f 32/45/5 33/44/5 66/44/5 65/45/5
